<svg width="600" height="400" viewBox="0 0 600 400" fill="none" xmlns="http://www.w3.org/2000/svg">
<rect width="600" height="400" fill="white" fill-opacity="0.01"/>
<circle cx="300" cy="200" r="150" fill="#F94A29" fill-opacity="0.1"/>
<path d="M450 300H150C144.477 300 140 295.523 140 290V130C140 124.477 144.477 120 150 120H450C455.523 120 460 124.477 460 130V290C460 295.523 455.523 300 450 300Z" fill="white" stroke="#333333" stroke-width="4"/>
<path d="M140 260H460" stroke="#F1F1F1" stroke-width="2"/>
<rect x="160" y="140" width="280" height="100" rx="4" fill="#F8F9FA"/>
<rect x="160" y="140" width="280" height="20" rx="4 4 0 0" fill="#E9ECEF"/>
<circle cx="170" cy="150" r="3" fill="#ADB5BD"/>
<circle cx="180" cy="150" r="3" fill="#ADB5BD"/>
<circle cx="190" cy="150" r="3" fill="#ADB5BD"/>
<path d="M480 320H120" stroke="#E9ECEF" stroke-width="4" stroke-linecap="round"/>
<path d="M300 300V320" stroke="#333333" stroke-width="4"/>
<path d="M260 320H340" stroke="#333333" stroke-width="4" stroke-linecap="round"/>
<rect x="380" y="220" width="120" height="140" rx="8" fill="white" stroke="#333333" stroke-width="4"/>
<rect x="390" y="230" width="100" height="80" rx="4" fill="#F94A29" fill-opacity="0.2"/>
<rect x="390" y="320" width="60" height="8" rx="4" fill="#E9ECEF"/>
<rect x="390" y="335" width="40" height="8" rx="4" fill="#E9ECEF"/>
<circle cx="200" cy="220" r="40" fill="#white" stroke="#F94A29" stroke-width="4"/>
<path d="M200 200V220L215 230" stroke="#F94A29" stroke-width="4" stroke-linecap="round" stroke-linejoin="round"/>
<path d="M40 80L80 120M520 40L480 80" stroke="#F94A29" stroke-width="4" stroke-linecap="round"/>
<circle cx="500" cy="100" r="10" fill="#F94A29"/>
<rect x="50" y="300" width="40" height="40" rx="4" transform="rotate(-15 50 300)" fill="#333333"/>
</svg>
